<svg width="23" height="23" viewBox="0 0 23 23" fill="none" xmlns="http://www.w3.org/2000/svg">
<g clip-path="url(#clip0_2857_25801)">
<path d="M16.5386 2.29492C16.9032 2.29492 17.253 2.43979 17.5108 2.69765C17.7687 2.95551 17.9136 3.30525 17.9136 3.66992V20.1699C17.9136 20.5346 17.7687 20.8843 17.5108 21.1422C17.253 21.4001 16.9032 21.5449 16.5386 21.5449H5.53857C5.1739 21.5449 4.82416 21.4001 4.5663 21.1422C4.30844 20.8843 4.16357 20.5346 4.16357 20.1699V3.66992C4.16357 3.30525 4.30844 2.95551 4.5663 2.69765C4.82416 2.43979 5.1739 2.29492 5.53857 2.29492H16.5386ZM5.53857 0.919922C4.80923 0.919922 4.10976 1.20965 3.59403 1.72538C3.07831 2.2411 2.78857 2.94058 2.78857 3.66992V20.1699C2.78857 20.8993 3.07831 21.5987 3.59403 22.1145C4.10976 22.6302 4.80923 22.9199 5.53857 22.9199H16.5386C17.2679 22.9199 17.9674 22.6302 18.4831 22.1145C18.9988 21.5987 19.2886 20.8993 19.2886 20.1699V3.66992C19.2886 2.94058 18.9988 2.2411 18.4831 1.72538C17.9674 1.20965 17.2679 0.919922 16.5386 0.919922L5.53857 0.919922Z" fill="#0A7212"/>
<path d="M5.53857 4.35742C5.53857 4.17509 5.61101 4.00022 5.73994 3.87129C5.86887 3.74235 6.04374 3.66992 6.22607 3.66992H15.8511C16.0334 3.66992 16.2083 3.74235 16.3372 3.87129C16.4661 4.00022 16.5386 4.17509 16.5386 4.35742V7.10742C16.5386 7.28976 16.4661 7.46463 16.3372 7.59356C16.2083 7.72249 16.0334 7.79492 15.8511 7.79492H6.22607C6.04374 7.79492 5.86887 7.72249 5.73994 7.59356C5.61101 7.46463 5.53857 7.28976 5.53857 7.10742V4.35742ZM5.53857 9.85742C5.53857 9.67509 5.61101 9.50022 5.73994 9.37129C5.86887 9.24235 6.04374 9.16992 6.22607 9.16992H7.60107C7.78341 9.16992 7.95828 9.24235 8.08721 9.37129C8.21614 9.50022 8.28857 9.67509 8.28857 9.85742V11.2324C8.28857 11.4148 8.21614 11.5896 8.08721 11.7186C7.95828 11.8475 7.78341 11.9199 7.60107 11.9199H6.22607C6.04374 11.9199 5.86887 11.8475 5.73994 11.7186C5.61101 11.5896 5.53857 11.4148 5.53857 11.2324V9.85742ZM5.53857 13.9824C5.53857 13.8001 5.61101 13.6252 5.73994 13.4963C5.86887 13.3674 6.04374 13.2949 6.22607 13.2949H7.60107C7.78341 13.2949 7.95828 13.3674 8.08721 13.4963C8.21614 13.6252 8.28857 13.8001 8.28857 13.9824V15.3574C8.28857 15.5398 8.21614 15.7146 8.08721 15.8436C7.95828 15.9725 7.78341 16.0449 7.60107 16.0449H6.22607C6.04374 16.0449 5.86887 15.9725 5.73994 15.8436C5.61101 15.7146 5.53857 15.5398 5.53857 15.3574V13.9824ZM5.53857 18.1074C5.53857 17.9251 5.61101 17.7502 5.73994 17.6213C5.86887 17.4924 6.04374 17.4199 6.22607 17.4199H7.60107C7.78341 17.4199 7.95828 17.4924 8.08721 17.6213C8.21614 17.7502 8.28857 17.9251 8.28857 18.1074V19.4824C8.28857 19.6648 8.21614 19.8396 8.08721 19.9686C7.95828 20.0975 7.78341 20.1699 7.60107 20.1699H6.22607C6.04374 20.1699 5.86887 20.0975 5.73994 19.9686C5.61101 19.8396 5.53857 19.6648 5.53857 19.4824V18.1074ZM9.66357 9.85742C9.66357 9.67509 9.73601 9.50022 9.86494 9.37129C9.99387 9.24235 10.1687 9.16992 10.3511 9.16992H11.7261C11.9084 9.16992 12.0833 9.24235 12.2122 9.37129C12.3411 9.50022 12.4136 9.67509 12.4136 9.85742V11.2324C12.4136 11.4148 12.3411 11.5896 12.2122 11.7186C12.0833 11.8475 11.9084 11.9199 11.7261 11.9199H10.3511C10.1687 11.9199 9.99387 11.8475 9.86494 11.7186C9.73601 11.5896 9.66357 11.4148 9.66357 11.2324V9.85742ZM9.66357 13.9824C9.66357 13.8001 9.73601 13.6252 9.86494 13.4963C9.99387 13.3674 10.1687 13.2949 10.3511 13.2949H11.7261C11.9084 13.2949 12.0833 13.3674 12.2122 13.4963C12.3411 13.6252 12.4136 13.8001 12.4136 13.9824V15.3574C12.4136 15.5398 12.3411 15.7146 12.2122 15.8436C12.0833 15.9725 11.9084 16.0449 11.7261 16.0449H10.3511C10.1687 16.0449 9.99387 15.9725 9.86494 15.8436C9.73601 15.7146 9.66357 15.5398 9.66357 15.3574V13.9824ZM9.66357 18.1074C9.66357 17.9251 9.73601 17.7502 9.86494 17.6213C9.99387 17.4924 10.1687 17.4199 10.3511 17.4199H11.7261C11.9084 17.4199 12.0833 17.4924 12.2122 17.6213C12.3411 17.7502 12.4136 17.9251 12.4136 18.1074V19.4824C12.4136 19.6648 12.3411 19.8396 12.2122 19.9686C12.0833 20.0975 11.9084 20.1699 11.7261 20.1699H10.3511C10.1687 20.1699 9.99387 20.0975 9.86494 19.9686C9.73601 19.8396 9.66357 19.6648 9.66357 19.4824V18.1074ZM13.7886 9.85742C13.7886 9.67509 13.861 9.50022 13.9899 9.37129C14.1189 9.24235 14.2937 9.16992 14.4761 9.16992H15.8511C16.0334 9.16992 16.2083 9.24235 16.3372 9.37129C16.4661 9.50022 16.5386 9.67509 16.5386 9.85742V11.2324C16.5386 11.4148 16.4661 11.5896 16.3372 11.7186C16.2083 11.8475 16.0334 11.9199 15.8511 11.9199H14.4761C14.2937 11.9199 14.1189 11.8475 13.9899 11.7186C13.861 11.5896 13.7886 11.4148 13.7886 11.2324V9.85742ZM13.7886 13.9824C13.7886 13.8001 13.861 13.6252 13.9899 13.4963C14.1189 13.3674 14.2937 13.2949 14.4761 13.2949H15.8511C16.0334 13.2949 16.2083 13.3674 16.3372 13.4963C16.4661 13.6252 16.5386 13.8001 16.5386 13.9824V19.4824C16.5386 19.6648 16.4661 19.8396 16.3372 19.9686C16.2083 20.0975 16.0334 20.1699 15.8511 20.1699H14.4761C14.2937 20.1699 14.1189 20.0975 13.9899 19.9686C13.861 19.8396 13.7886 19.6648 13.7886 19.4824V13.9824Z" fill="#0A7212"/>
</g>
<defs>
<clipPath id="clip0_2857_25801">
<rect width="22" height="22" fill="white" transform="translate(0.0385742 0.919922)"/>
</clipPath>
</defs>
</svg>
