<svg width="29" height="29" viewBox="0 0 29 29" fill="none" xmlns="http://www.w3.org/2000/svg">
<path d="M3.61035 11.9958C3.61035 10.8011 4.57881 9.83268 5.77347 9.83268V9.83268C6.5928 9.83268 7.34181 9.36977 7.70822 8.63694L8.66591 6.72157C8.88336 6.28666 8.99209 6.06921 9.13594 5.89455C9.41671 5.55363 9.80244 5.31524 10.2329 5.21657C10.4535 5.16602 10.6966 5.16602 11.1828 5.16602H17.0379C17.5241 5.16602 17.7672 5.16602 17.9878 5.21657C18.4183 5.31524 18.804 5.55363 19.0848 5.89455C19.2286 6.06921 19.3373 6.28666 19.5548 6.72157L20.5125 8.63694C20.8789 9.36977 21.6279 9.83268 22.4472 9.83268V9.83268C23.6419 9.83268 24.6104 10.8011 24.6104 11.9958V17.8327C24.6104 20.6611 24.6104 22.0753 23.7317 22.954C22.853 23.8327 21.4388 23.8327 18.6104 23.8327H9.61035C6.78192 23.8327 5.36771 23.8327 4.48903 22.954C3.61035 22.0753 3.61035 20.6611 3.61035 17.8327V11.9958Z" stroke="#6F6F6F" stroke-width="1.5"/>
<path d="M18.0272 15.6657C18.0272 17.8288 16.2736 19.5824 14.1105 19.5824C11.9474 19.5824 10.1938 17.8288 10.1938 15.6657C10.1938 13.5026 11.9474 11.749 14.1105 11.749C16.2736 11.749 18.0272 13.5026 18.0272 15.6657Z" stroke="#6F6F6F" stroke-width="1.5"/>
</svg>
