<svg width="15" height="14" viewBox="0 0 15 14" fill="none" xmlns="http://www.w3.org/2000/svg">
<g clip-path="url(#clip0_88_7943)">
<path d="M12.8916 6.46731V7.00015C12.8909 8.2491 12.4865 9.46435 11.7387 10.4647C10.9909 11.465 9.93973 12.1968 8.74203 12.5509C7.54434 12.905 6.26426 12.8625 5.09271 12.4297C3.92116 11.9969 2.92091 11.1969 2.24113 10.1492C1.56136 9.10142 1.23848 7.862 1.32066 6.61576C1.40284 5.36952 1.88566 4.18323 2.69713 3.23381C3.5086 2.2844 4.60523 1.62273 5.82347 1.34748C7.04171 1.07223 8.31629 1.19816 9.45711 1.70648" stroke="#0A7212" stroke-width="1.15835" stroke-linecap="round" stroke-linejoin="round"/>
<path d="M12.8916 2.36621L7.09983 8.16376L5.3623 6.42623" stroke="#0A7212" stroke-width="1.15835" stroke-linecap="round" stroke-linejoin="round"/>
</g>
<defs>
<clipPath id="clip0_88_7943">
<rect width="13.9002" height="13.9002" fill="white" transform="translate(0.149902 0.0498047)"/>
</clipPath>
</defs>
</svg>
