<svg width="25" height="25" viewBox="0 0 25 25" fill="none" xmlns="http://www.w3.org/2000/svg">
<g clip-path="url(#clip0_2857_25814)">
<path d="M22.8765 21.499C22.8765 21.499 24.3765 21.499 24.3765 19.999C24.3765 18.499 22.8765 13.999 16.8765 13.999C10.8765 13.999 9.37646 18.499 9.37646 19.999C9.37646 21.499 10.8765 21.499 10.8765 21.499H22.8765ZM10.9095 19.999C10.8984 19.9975 10.8874 19.9955 10.8765 19.993C10.878 19.597 11.127 18.448 12.0165 17.413C12.8445 16.4425 14.2995 15.499 16.8765 15.499C19.452 15.499 20.907 16.444 21.7365 17.413C22.626 18.448 22.8735 19.5985 22.8765 19.993L22.8645 19.996C22.8575 19.9972 22.8505 19.9982 22.8435 19.999H10.9095ZM16.8765 10.999C17.6721 10.999 18.4352 10.683 18.9978 10.1203C19.5604 9.55773 19.8765 8.79467 19.8765 7.99902C19.8765 7.20337 19.5604 6.44031 18.9978 5.8777C18.4352 5.31509 17.6721 4.99902 16.8765 4.99902C16.0808 4.99902 15.3178 5.31509 14.7551 5.8777C14.1925 6.44031 13.8765 7.20337 13.8765 7.99902C13.8765 8.79467 14.1925 9.55773 14.7551 10.1203C15.3178 10.683 16.0808 10.999 16.8765 10.999ZM21.3765 7.99902C21.3765 8.58997 21.2601 9.17513 21.0339 9.7211C20.8078 10.2671 20.4763 10.7631 20.0584 11.181C19.6406 11.5989 19.1445 11.9303 18.5985 12.1565C18.0526 12.3826 17.4674 12.499 16.8765 12.499C16.2855 12.499 15.7004 12.3826 15.1544 12.1565C14.6084 11.9303 14.1123 11.5989 13.6945 11.181C13.2766 10.7631 12.9452 10.2671 12.719 9.7211C12.4929 9.17513 12.3765 8.58997 12.3765 7.99902C12.3765 6.80555 12.8506 5.66096 13.6945 4.81704C14.5384 3.97313 15.683 3.49902 16.8765 3.49902C18.0699 3.49902 19.2145 3.97313 20.0584 4.81704C20.9024 5.66096 21.3765 6.80555 21.3765 7.99902ZM10.7805 14.419C10.1804 14.2301 9.56192 14.1059 8.93546 14.0485C8.58346 14.0151 8.23005 13.9985 7.87646 13.999C1.87646 13.999 0.376465 18.499 0.376465 19.999C0.376465 20.9995 0.875965 21.499 1.87646 21.499H8.20047C7.9781 21.0307 7.8672 20.5173 7.87646 19.999C7.87646 18.484 8.44197 16.936 9.51147 15.643C9.87597 15.202 10.3005 14.7895 10.7805 14.419ZM7.75646 15.499C6.8687 16.8329 6.38912 18.3967 6.37646 19.999H1.87646C1.87646 19.609 2.12246 18.454 3.01646 17.413C3.83396 16.459 5.25447 15.529 7.75646 15.5005V15.499ZM2.62646 8.74902C2.62646 7.55555 3.10057 6.41096 3.94448 5.56704C4.7884 4.72313 5.93299 4.24902 7.12646 4.24902C8.31994 4.24902 9.46453 4.72313 10.3084 5.56704C11.1524 6.41096 11.6265 7.55555 11.6265 8.74902C11.6265 9.9425 11.1524 11.0871 10.3084 11.931C9.46453 12.7749 8.31994 13.249 7.12646 13.249C5.93299 13.249 4.7884 12.7749 3.94448 11.931C3.10057 11.0871 2.62646 9.9425 2.62646 8.74902ZM7.12646 5.74902C6.33082 5.74902 5.56775 6.06509 5.00514 6.6277C4.44254 7.19031 4.12646 7.95337 4.12646 8.74902C4.12646 9.54467 4.44254 10.3077 5.00514 10.8703C5.56775 11.433 6.33082 11.749 7.12646 11.749C7.92211 11.749 8.68518 11.433 9.24779 10.8703C9.81039 10.3077 10.1265 9.54467 10.1265 8.74902C10.1265 7.95337 9.81039 7.19031 9.24779 6.6277C8.68518 6.06509 7.92211 5.74902 7.12646 5.74902Z" fill="#6F6F6F"/>
</g>
<defs>
<clipPath id="clip0_2857_25814">
<rect width="24" height="24" fill="white" transform="translate(0.376465 0.499023)"/>
</clipPath>
</defs>
</svg>
