<svg width="29" height="29" viewBox="0 0 29 29" fill="none" xmlns="http://www.w3.org/2000/svg">
<path d="M6.61475 15.3852C6.61475 13.8011 6.61475 13.0091 6.93495 12.3129C7.25516 11.6167 7.85651 11.1013 9.05921 10.0704L10.2259 9.07037C12.3997 7.20705 13.4867 6.27539 14.7814 6.27539C16.0761 6.27539 17.1631 7.20705 19.337 9.07037L20.5036 10.0704C21.7063 11.1013 22.3077 11.6167 22.6279 12.3129C22.9481 13.0091 22.9481 13.8011 22.9481 15.3852V20.3323C22.9481 22.5322 22.9481 23.6321 22.2647 24.3155C21.5812 24.999 20.4813 24.999 18.2814 24.999H11.2814C9.08152 24.999 7.98158 24.999 7.29816 24.3155C6.61475 23.6321 6.61475 22.5322 6.61475 20.3323V15.3852Z" fill="#FCFBFB" stroke="#6F6F6F" stroke-width="1.5"/>
<path d="M17.6981 24.999V18.999C17.6981 18.4467 17.2504 17.999 16.6981 17.999H12.8647C12.3125 17.999 11.8647 18.4467 11.8647 18.999V24.999" stroke="#6F6F6F" stroke-width="1.5" stroke-linecap="round" stroke-linejoin="round"/>
</svg>
