<svg width="25" height="25" viewBox="0 0 25 25" fill="none" xmlns="http://www.w3.org/2000/svg">
<path d="M5.20752 17.5H9.20752C10.8644 17.5 12.2075 18.8431 12.2075 20.5V10.5C12.2075 7.67157 12.2075 6.25736 11.3288 5.37868C10.4502 4.5 9.03595 4.5 6.20752 4.5H5.20752C4.26471 4.5 3.79331 4.5 3.50041 4.79289C3.20752 5.08579 3.20752 5.55719 3.20752 6.5V15.5C3.20752 16.4428 3.20752 16.9142 3.50041 17.2071C3.79331 17.5 4.26471 17.5 5.20752 17.5Z" stroke="#6F6F6F" stroke-width="1.5"/>
<path d="M19.2075 17.5H15.2075C13.5507 17.5 12.2075 18.8431 12.2075 20.5V10.5C12.2075 7.67157 12.2075 6.25736 13.0862 5.37868C13.9649 4.5 15.3791 4.5 18.2075 4.5H19.2075C20.1503 4.5 20.6217 4.5 20.9146 4.79289C21.2075 5.08579 21.2075 5.55719 21.2075 6.5V15.5C21.2075 16.4428 21.2075 16.9142 20.9146 17.2071C20.6217 17.5 20.1503 17.5 19.2075 17.5Z" stroke="#6F6F6F" stroke-width="1.5"/>
</svg>
